<svg width="31" height="28" viewBox="0 0 31 28" fill="none" xmlns="http://www.w3.org/2000/svg">
<path d="M25.969 0.820319H22.022C21.8112 0.813276 21.6061 0.889819 21.4514 1.03328C21.2967 1.17675 21.2049 1.37552 21.196 1.58632C21.2049 1.79712 21.2967 1.99589 21.4514 2.13935C21.6061 2.28282 21.8112 2.35936 22.022 2.35232H25.968C26.3252 2.33852 26.6733 2.46704 26.9358 2.70966C27.1983 2.95228 27.3537 3.28916 27.368 3.64632V7.30532C27.3826 7.51446 27.476 7.71028 27.6293 7.85328C27.7826 7.99628 27.9844 8.0758 28.194 8.0758C28.4037 8.0758 28.6055 7.99628 28.7588 7.85328C28.9121 7.71028 29.0055 7.51446 29.02 7.30532V3.64632C28.9888 2.86747 28.6502 2.13274 28.0783 1.60306C27.5065 1.07337 26.748 0.791911 25.969 0.820319V0.820319Z" fill="white"/>
<path d="M1.64704 8.07121C1.85791 8.07825 2.06303 8.00171 2.21773 7.85825C2.37243 7.71478 2.4642 7.51601 2.47304 7.30521V3.64621C2.48735 3.28905 2.64282 2.95217 2.90532 2.70955C3.16781 2.46693 3.51587 2.33841 3.87304 2.35221H7.81504C8.02591 2.35925 8.23103 2.28271 8.38573 2.13925C8.54043 1.99578 8.6322 1.79701 8.64105 1.58621C8.6322 1.37541 8.54043 1.17664 8.38573 1.03318C8.23103 0.889711 8.02591 0.813168 7.81504 0.820211H3.86905C3.0906 0.792615 2.3329 1.07444 1.7617 1.60404C1.1905 2.13364 0.852285 2.8679 0.821045 3.64621L0.821045 7.30521C0.829894 7.51601 0.921659 7.71478 1.07636 7.85825C1.23106 8.00171 1.43618 8.07825 1.64704 8.07121V8.07121Z" fill="white"/>
<path d="M7.81504 25.4304H3.86905C3.51187 25.4442 3.16381 25.3157 2.90132 25.073C2.63882 24.8304 2.48335 24.4935 2.46904 24.1364V20.4774C2.4602 20.2666 2.36843 20.0678 2.21373 19.9243C2.05903 19.7809 1.85391 19.7043 1.64304 19.7114C1.43286 19.7054 1.22877 19.7824 1.07494 19.9258C0.921105 20.0691 0.829897 20.2673 0.821045 20.4774L0.821045 24.1364C0.852285 24.9147 1.1905 25.649 1.7617 26.1786C2.3329 26.7082 3.0906 26.99 3.86905 26.9624H7.81504C7.92029 26.97 8.02598 26.9558 8.12551 26.9208C8.22504 26.8857 8.31628 26.8306 8.39354 26.7587C8.4708 26.6868 8.53242 26.5998 8.57455 26.503C8.61669 26.4063 8.63843 26.3019 8.63843 26.1964C8.63843 26.0909 8.61669 25.9865 8.57455 25.8897C8.53242 25.793 8.4708 25.706 8.39354 25.6341C8.31628 25.5622 8.22504 25.507 8.12551 25.472C8.02598 25.4369 7.92029 25.4228 7.81504 25.4304V25.4304Z" fill="white"/>
<path d="M28.1901 19.7114C27.9792 19.7043 27.7741 19.7809 27.6194 19.9243C27.4647 20.0678 27.3729 20.2666 27.3641 20.4774V24.1364C27.3498 24.4935 27.1943 24.8304 26.9318 25.073C26.6693 25.3157 26.3212 25.4442 25.9641 25.4304H22.0221C21.9168 25.4228 21.8111 25.4369 21.7116 25.472C21.6121 25.507 21.5208 25.5622 21.4436 25.6341C21.3663 25.706 21.3047 25.793 21.2625 25.8897C21.2204 25.9865 21.1987 26.0909 21.1987 26.1964C21.1987 26.3019 21.2204 26.4063 21.2625 26.503C21.3047 26.5998 21.3663 26.6868 21.4436 26.7587C21.5208 26.8306 21.6121 26.8857 21.7116 26.9208C21.8111 26.9558 21.9168 26.97 22.0221 26.9624H25.9681C26.7465 26.99 27.5042 26.7082 28.0754 26.1786C28.6466 25.649 28.9848 24.9147 29.0161 24.1364V20.4774C29.0072 20.2666 28.9154 20.0678 28.7607 19.9243C28.606 19.7809 28.4009 19.7043 28.1901 19.7114V19.7114Z" fill="white"/>
<path d="M19.6351 6.43634H22.2551C22.4206 6.43038 22.5817 6.49013 22.7033 6.60254C22.8249 6.71495 22.8971 6.8709 22.9041 7.03634V9.46534C22.9186 9.67448 23.012 9.87031 23.1653 10.0133C23.3186 10.1563 23.5204 10.2358 23.7301 10.2358C23.9397 10.2358 24.1416 10.1563 24.2949 10.0133C24.4482 9.87031 24.5415 9.67448 24.5561 9.46534V7.03734C24.5324 6.45003 24.2772 5.89598 23.8462 5.49629C23.4152 5.0966 22.8435 4.88378 22.2561 4.90434H19.6361C19.5308 4.89673 19.4251 4.91089 19.3256 4.94594C19.2261 4.98099 19.1348 5.03617 19.0576 5.10804C18.9803 5.17992 18.9187 5.26694 18.8766 5.36369C18.8344 5.46043 18.8127 5.56482 18.8127 5.67034C18.8127 5.77587 18.8344 5.88026 18.8766 5.977C18.9187 6.07375 18.9803 6.16077 19.0576 6.23264C19.1348 6.30452 19.2261 6.3597 19.3256 6.39475C19.4251 6.42979 19.5308 6.44395 19.6361 6.43634H19.6351Z" fill="white"/>
<path d="M5.28107 7.0383V9.4673C5.29563 9.67643 5.38898 9.87226 5.54228 10.0153C5.69559 10.1583 5.89742 10.2378 6.10707 10.2378C6.31671 10.2378 6.51855 10.1583 6.67185 10.0153C6.82515 9.87226 6.9185 9.67643 6.93307 9.4673V7.0383C6.94009 6.87285 7.01228 6.71691 7.13387 6.6045C7.25546 6.49208 7.41658 6.43234 7.58207 6.4383H10.2021C10.3073 6.44591 10.413 6.43175 10.5125 6.3967C10.6121 6.36165 10.7033 6.30647 10.7806 6.2346C10.8578 6.16272 10.9194 6.0757 10.9616 5.97895C11.0037 5.88221 11.0255 5.77782 11.0255 5.6723C11.0255 5.56678 11.0037 5.46239 10.9616 5.36564C10.9194 5.2689 10.8578 5.18187 10.7806 5.11C10.7033 5.03812 10.6121 4.98294 10.5125 4.94789C10.413 4.91285 10.3073 4.89869 10.2021 4.9063H7.58207C6.99463 4.88546 6.42284 5.09802 5.99167 5.49753C5.56049 5.89703 5.30501 6.45098 5.28107 7.0383V7.0383Z" fill="white"/>
<path d="M10.2021 21.2448H7.58207C7.41658 21.2508 7.25546 21.1911 7.13387 21.0786C7.01228 20.9662 6.94009 20.8103 6.93307 20.6448V18.2138C6.9185 18.0047 6.82515 17.8089 6.67185 17.6659C6.51855 17.5229 6.31671 17.4434 6.10707 17.4434C5.89742 17.4434 5.69559 17.5229 5.54228 17.6659C5.38898 17.8089 5.29563 18.0047 5.28107 18.2138V20.6428C5.30476 21.2302 5.55999 21.7842 5.99097 22.1839C6.42195 22.5836 6.99364 22.7964 7.58107 22.7758H10.2011C10.3063 22.7835 10.412 22.7693 10.5115 22.7342C10.6111 22.6992 10.7023 22.644 10.7796 22.5721C10.8568 22.5003 10.9184 22.4132 10.9606 22.3165C11.0027 22.2198 11.0245 22.1154 11.0245 22.0098C11.0245 21.9043 11.0027 21.7999 10.9606 21.7032C10.9184 21.6064 10.8568 21.5194 10.7796 21.4475C10.7023 21.3757 10.6111 21.3205 10.5115 21.2854C10.412 21.2504 10.3063 21.2362 10.2011 21.2438L10.2021 21.2448Z" fill="white"/>
<path d="M24.556 20.6428V18.2138C24.5415 18.0047 24.4481 17.8089 24.2948 17.6659C24.1415 17.5229 23.9397 17.4434 23.73 17.4434C23.5204 17.4434 23.3186 17.5229 23.1653 17.6659C23.0119 17.8089 22.9186 18.0047 22.904 18.2138V20.6428C22.897 20.8083 22.8248 20.9642 22.7032 21.0766C22.5816 21.1891 22.4205 21.2488 22.255 21.2428H19.635C19.5298 21.2352 19.4241 21.2494 19.3246 21.2844C19.225 21.3195 19.1338 21.3747 19.0565 21.4465C18.9793 21.5184 18.9177 21.6054 18.8755 21.7022C18.8334 21.7989 18.8116 21.9033 18.8116 22.0088C18.8116 22.1144 18.8334 22.2188 18.8755 22.3155C18.9177 22.4122 18.9793 22.4993 19.0565 22.5711C19.1338 22.643 19.225 22.6982 19.3246 22.7332C19.4241 22.7683 19.5298 22.7825 19.635 22.7748H22.255C22.8425 22.7957 23.4143 22.5831 23.8454 22.1836C24.2766 21.7841 24.5321 21.2302 24.556 20.6428V20.6428Z" fill="white"/>
<path d="M0.876038 13.891C0.884889 14.1011 0.976098 14.2993 1.12993 14.4426C1.28376 14.586 1.48785 14.663 1.69804 14.657H28.135C28.2403 14.6647 28.346 14.6505 28.4455 14.6155C28.545 14.5804 28.6363 14.5252 28.7135 14.4533C28.7908 14.3815 28.8524 14.2945 28.8945 14.1977C28.9367 14.101 28.9584 13.9966 28.9584 13.891C28.9584 13.7855 28.9367 13.6811 28.8945 13.5844C28.8524 13.4876 28.7908 13.4006 28.7135 13.3287C28.6363 13.2569 28.545 13.2017 28.4455 13.1666C28.346 13.1316 28.2403 13.1174 28.135 13.125H1.69804C1.48785 13.1191 1.28376 13.1961 1.12993 13.3395C0.976098 13.4828 0.884889 13.681 0.876038 13.891V13.891Z" fill="white"/>
</svg>
