<svg width="24" height="24" viewBox="0 0 24 24" fill="none" xmlns="http://www.w3.org/2000/svg">
<g clip-path="url(#clip0_22_98)">
<path d="M12 22.6764C11.6582 22.6757 11.3283 22.5505 11.072 22.3244C10.102 21.4764 9.172 20.6804 8.343 19.9774C6.20817 18.2764 4.21403 16.406 2.38 14.3844C0.90149 12.79 0.0552756 10.7111 2.27243e-07 8.53737C-0.0333702 6.65155 0.645024 4.82238 1.9 3.41437C2.50969 2.75002 3.25183 2.2208 4.07857 1.86082C4.90531 1.50084 5.79831 1.3181 6.7 1.32437C8.06798 1.31793 9.3976 1.7763 10.471 2.62437C11.0545 3.07962 11.5694 3.61646 12 4.21837C12.4294 3.61674 12.9429 3.07992 13.525 2.62437C14.5995 1.77544 15.9306 1.31702 17.3 1.32437C18.2017 1.3181 19.0947 1.50084 19.9214 1.86082C20.7482 2.2208 21.4903 2.75002 22.1 3.41437C23.355 4.82238 24.0334 6.65155 24 8.53737C23.9448 10.7111 23.0986 12.79 21.62 14.3844C19.7876 16.4058 17.7951 18.2762 15.662 19.9774C14.836 20.6774 13.9 21.4774 12.928 22.3294C12.6711 22.554 12.3413 22.6777 12 22.6774V22.6764ZM6.7 2.73037C5.99325 2.72548 5.29331 2.8686 4.64521 3.15054C3.99712 3.43248 3.41523 3.84698 2.937 4.36737C1.92034 5.5154 1.37337 7.00422 1.405 8.53737C1.45898 10.3841 2.19125 12.1463 3.462 13.4874C5.24464 15.4446 7.18007 17.257 9.25 18.9074V18.9074C10.078 19.6134 11.016 20.4124 11.993 21.2664C12.976 20.4104 13.915 19.6094 14.745 18.9034C16.8149 17.2529 18.7503 15.4405 20.533 13.4834C21.8037 12.1422 22.5359 10.3801 22.59 8.53338C22.6216 7.00022 22.0747 5.5114 21.058 4.36337C20.58 3.84433 19.9987 3.43094 19.3516 3.14972C18.7044 2.86851 18.0056 2.72567 17.3 2.73037C16.2435 2.72689 15.2171 3.0823 14.389 3.73837C13.7382 4.25965 13.1884 4.89584 12.767 5.61538C12.6884 5.74759 12.5768 5.8571 12.4431 5.93316C12.3095 6.00921 12.1583 6.04921 12.0045 6.04921C11.8507 6.04921 11.6995 6.00921 11.5659 5.93316C11.4322 5.8571 11.3206 5.74759 11.242 5.61538C10.8192 4.89533 10.2677 4.2591 9.615 3.73837C8.78581 3.08144 7.75788 2.72599 6.7 2.73037Z" fill="black"/>
</g>
<defs>
<clipPath id="clip0_22_98">
<rect width="24" height="24" fill="white"/>
</clipPath>
</defs>
</svg>
