<svg width="24" height="24" viewBox="0 0 24 24" fill="none" xmlns="http://www.w3.org/2000/svg">
<g clip-path="url(#clip0_22_117)">
<path d="M7.656 18.667C7.16036 18.667 6.67585 18.814 6.26374 19.0893C5.85163 19.3647 5.53043 19.7561 5.34076 20.214C5.15109 20.6719 5.10146 21.1758 5.19815 21.6619C5.29485 22.148 5.53352 22.5945 5.88399 22.945C6.23446 23.2955 6.68099 23.5341 7.1671 23.6308C7.65322 23.7275 8.15709 23.6779 8.61501 23.4882C9.07292 23.2986 9.4643 22.9774 9.73966 22.5653C10.015 22.1531 10.162 21.6686 10.162 21.173C10.162 20.5084 9.89798 19.8709 9.42801 19.401C8.95804 18.931 8.32063 18.667 7.656 18.667V18.667ZM7.656 22.567C7.38069 22.567 7.11156 22.4854 6.88265 22.3324C6.65373 22.1794 6.47532 21.962 6.36996 21.7077C6.2646 21.4533 6.23704 21.1734 6.29075 20.9034C6.34446 20.6334 6.47703 20.3854 6.67171 20.1907C6.86638 19.996 7.11441 19.8635 7.38444 19.8097C7.65446 19.756 7.93434 19.7836 8.1887 19.889C8.44305 19.9943 8.66045 20.1727 8.81341 20.4016C8.96636 20.6306 9.048 20.8997 9.048 21.175C9.04747 21.5438 8.90058 21.8974 8.63959 22.158C8.37859 22.4186 8.02484 22.565 7.656 22.565V22.567Z" fill="black"/>
<path d="M18.235 18.667C17.7394 18.667 17.2549 18.814 16.8427 19.0893C16.4306 19.3647 16.1094 19.7561 15.9198 20.214C15.7301 20.6719 15.6805 21.1758 15.7772 21.6619C15.8738 22.148 16.1125 22.5945 16.463 22.945C16.8135 23.2955 17.26 23.5341 17.7461 23.6308C18.2322 23.7275 18.7361 23.6779 19.194 23.4882C19.6519 23.2986 20.0433 22.9774 20.3187 22.5653C20.594 22.1531 20.741 21.6686 20.741 21.173C20.741 20.5084 20.477 19.8709 20.007 19.401C19.537 18.931 18.8996 18.667 18.235 18.667V18.667ZM18.235 22.567C17.9597 22.567 17.6906 22.4854 17.4616 22.3324C17.2327 22.1794 17.0543 21.962 16.949 21.7077C16.8436 21.4533 16.816 21.1734 16.8697 20.9034C16.9235 20.6334 17.056 20.3854 17.2507 20.1907C17.4454 19.996 17.6934 19.8635 17.9634 19.8097C18.2335 19.756 18.5133 19.7836 18.7677 19.889C19.022 19.9943 19.2394 20.1727 19.3924 20.4016C19.5454 20.6306 19.627 20.8997 19.627 21.175C19.6265 21.5438 19.4796 21.8974 19.2186 22.158C18.9576 22.4186 18.6038 22.565 18.235 22.565V22.567Z" fill="black"/>
<path d="M23.886 4.05217C23.7705 3.92472 23.6121 3.84427 23.441 3.82617L5.317 3.57817L4.817 2.04717C4.64386 1.54843 4.32082 1.11539 3.8921 0.807317C3.46337 0.499243 2.94991 0.331194 2.422 0.326172H0.557C0.409274 0.326172 0.267599 0.384856 0.163142 0.489313C0.0586838 0.593771 0 0.735446 0 0.883172C0 1.0309 0.0586838 1.17257 0.163142 1.27703C0.267599 1.38149 0.409274 1.44017 0.557 1.44017H2.422C2.71748 1.44677 3.00386 1.54364 3.24268 1.71775C3.4815 1.89186 3.66133 2.13488 3.758 2.41417L7.294 13.0722L7.016 13.7122C6.86306 14.1069 6.80606 14.5323 6.8497 14.9534C6.89333 15.3745 7.03636 15.7792 7.267 16.1342C7.49531 16.4826 7.80433 16.7709 8.16784 16.9744C8.53134 17.1779 8.93859 17.2907 9.355 17.3032H20.185C20.3327 17.3032 20.4744 17.2445 20.5789 17.14C20.6833 17.0356 20.742 16.8939 20.742 16.7462C20.742 16.5984 20.6833 16.4568 20.5789 16.3523C20.4744 16.2479 20.3327 16.1892 20.185 16.1892H9.354C9.11955 16.1838 8.89009 16.1204 8.6861 16.0047C8.48211 15.889 8.30996 15.7246 8.185 15.5262C8.0618 15.3287 7.98525 15.1057 7.96116 14.8742C7.93708 14.6427 7.96609 14.4088 8.046 14.1902L8.269 13.6902L19.99 12.4652C20.6184 12.396 21.21 12.1341 21.6836 11.7153C22.1572 11.2965 22.4895 10.7414 22.635 10.1262L23.97 4.52617C23.9997 4.44688 24.0076 4.36106 23.9928 4.27769C23.978 4.19431 23.9411 4.11643 23.886 4.05217V4.05217ZM21.548 9.87017C21.46 10.2658 21.2473 10.6227 20.9413 10.8884C20.6352 11.1541 20.252 11.3145 19.848 11.3462L8.267 12.5462L5.679 4.69217L22.745 4.94317L21.548 9.87017Z" fill="black"/>
</g>
<defs>
<clipPath id="clip0_22_117">
<rect width="24" height="24" fill="white"/>
</clipPath>
</defs>
</svg>
